{"title":"[PL] All Night At The DDD Diner","uid":5504084,"size":730890240,"categoryP":"porn","categoryS":"movies","magnet":"?xt=urn:btih:f139ccf14595d20396b2aca78143223b72b01ac4&amp;dn=%5BPL%5D+All+Night+At+The+DDD+Diner&amp;tr=udp%3A%2F%2Ftracker.openbittorrent.com%3A80&amp;tr=udp%3A%2F%2Fopen.demonii.com%3A1337&amp;tr=udp%3A%2F%2Ftracker.coppersurfer.tk%3A6969&amp;tr=udp%3A%2F%2Fexodus.desync.com%3A6969","seeders":0,"leechers":3,"uploader":"dodgerblue","files":1,"time":1271711113,"description":" All Night At The DDD Diner\n\n\n\n\n\n\n\n\n\n\n\n\n\n\n\n\n\n\n\n\n\n\n\n\n\n\n\n\n\nFormat                           : AVI\nFormat/Info                      : Audio Video Interleave\nFile size                        : 697 MiB\nDuration                         : 1h 29mn\nOverall bit rate                 : 1 091 Kbps\nWriting application              : VirtualDubMod 1.5.10.2 (build 2540/release)\nWriting library                  : VirtualDubMod build 2540/release\n\nVideo\nFormat                           : MPEG-4 Visual\nFormat profile                   : Streaming Video@L1\nFormat settings, BVOP            : Yes\nFormat settings, QPel            : No\nFormat settings, GMC             : No warppoints\nFormat settings, Matrix          : Default\nCodec ID                         : XVID\nCodec ID/Hint                    : XviD\nDuration                         : 1h 29mn\nBit rate                         : 946 Kbps\nWidth                            : 576 pixels\nHeight                           : 320 pixels\nDisplay aspect ratio             : 16/9\nFrame rate                       : 23.976 fps\nResolution                       : 24 bits\nColorimetry                      : 4:2:0\nScan type                        : Progressive\nBits/(Pixel*Frame)               : 0.214\nStream size                      : 604 MiB (87%)\nWriting library                  : XviD 1.1.2 (UTC 2006-11-01)\n\nAudio\nFormat                           : MPEG Audio\nFormat version                   : Version 1\nFormat profile                   : Layer 3\nCodec ID                         : 55\nCodec ID/Hint                    : MP3\nDuration                         : 1h 29mn\nBit rate mode                    : Variable\nBit rate                         : 132 Kbps\nChannel(s)                       : 2 channels\nSampling rate                    : 48.0 KHz\nResolution                       : 16 bits\nStream size                      : 84.5 MiB (12%)\nAlignment                        : Aligned on interleaves\nInterleave, duration             : 24 ms (0.58 video frame)\nInterleave, preload duration     : 449 ms\nA simple thankyou ensures my seedboxes are given priority on this file!(you will get the file faster)\nNo thanks=No re-seeds,No help~No worries i can't be arsed either.\nScreens are posted for this file,how-ever some sites do not allow all picture hosts(and i do not have time upload pics to a certain host for a specific site).\nI will not respond in this thread to any comments from now on(unless you are a member of a private site or are a respected member of a public site).\nThankyou to all the REAL contributors to the sites who keep the faith everyday.\nLeechers,Ass-wipes,Zero posters keep on moaning into our deaf ears.\nContact? Old Skool-respected only (you know how);-)\n[url]http://www.fhqhosting.com/ui/1ggggg.swf[/url]\n[IMG]http://i43.servimg.com/u/f43/12/33/79/02/potpis10.gif[/IMG]\n","torrent":{"xt":"urn:btih:f139ccf14595d20396b2aca78143223b72b01ac4","amp;dn":"%5BPL%5D+All+Night+At+The+DDD+Diner","amp;tr":["udp%3A%2F%2Ftracker.openbittorrent.com%3A80","udp%3A%2F%2Fopen.demonii.com%3A1337","udp%3A%2F%2Ftracker.coppersurfer.tk%3A6969","udp%3A%2F%2Fexodus.desync.com%3A6969"],"infoHash":"f139ccf14595d20396b2aca78143223b72b01ac4","infoHashBuffer":{"type":"Buffer","data":[241,57,204,241,69,149,210,3,150,178,172,167,129,67,34,59,114,176,26,196]},"announce":[],"urlList":[]}}